<?xml version="1.0" encoding="utf-8"?>
<!-- Generator: Adobe Illustrator 24.0.3, SVG Export Plug-In . SVG Version: 6.00 Build 0)  -->
<svg version="1.1" id="Layer_1" xmlns="http://www.w3.org/2000/svg" xmlns:xlink="http://www.w3.org/1999/xlink" x="0px" y="0px"
	 viewBox="0 0 1694 1640" style="enable-background:new 0 0 1694 1640;" xml:space="preserve">
<style type="text/css">
	.st0{fill:url(#SVGID_1_);}
	.st1{fill:url(#XMLID_2_);}
	.st2{fill:url(#SVGID_2_);}
	.st3{fill:#3DDC84;}
</style>
<g>
	
		<linearGradient id="SVGID_1_" gradientUnits="userSpaceOnUse" x1="155.952" y1="-804.847" x2="1085.0813" y2="124.2823" gradientTransform="matrix(1 0 0 -1 0 482)">
		<stop  offset="0.1075" style="stop-color:#C757BC"/>
		<stop  offset="0.2138" style="stop-color:#D0609A"/>
		<stop  offset="0.4254" style="stop-color:#E1725C"/>
		<stop  offset="0.6048" style="stop-color:#EE7E2F"/>
		<stop  offset="0.743" style="stop-color:#F58613"/>
		<stop  offset="0.8232" style="stop-color:#F88909"/>
	</linearGradient>
	<polygon class="st0" points="869.1,285.2 287.3,897.1 287.3,1444 868.2,862 1446.1,285.2 	"/>
	
		<linearGradient id="XMLID_2_" gradientUnits="userSpaceOnUse" x1="695.9888" y1="-1132.1732" x2="1185.447" y2="-642.7151" gradientTransform="matrix(1 0 0 -1 0 482)">
		<stop  offset="9.677000e-02" style="stop-color:#0095D5"/>
		<stop  offset="0.3007" style="stop-color:#238AD9"/>
		<stop  offset="0.6211" style="stop-color:#557BDE"/>
		<stop  offset="0.8643" style="stop-color:#7472E2"/>
		<stop  offset="1" style="stop-color:#806EE3"/>
	</linearGradient>
	<polygon id="XMLID_3_" class="st1" points="287.3,1444 868.2,862 1446.1,1444 	"/>
	
		<linearGradient id="SVGID_2_" gradientUnits="userSpaceOnUse" x1="234.1423" y1="-162.2933" x2="661.9623" y2="265.5269" gradientTransform="matrix(1 0 0 -1 0 482)">
		<stop  offset="9.677000e-02" style="stop-color:#0095D5"/>
		<stop  offset="0.3007" style="stop-color:#238AD9"/>
		<stop  offset="0.6211" style="stop-color:#557BDE"/>
		<stop  offset="0.8643" style="stop-color:#7472E2"/>
		<stop  offset="1" style="stop-color:#806EE3"/>
	</linearGradient>
	<polygon class="st2" points="287.3,285.2 869.1,285.2 287.3,897.1 	"/>
</g>
<path class="st3" d="M1300.5,1179.9c-9.4-9.4-9.3-24.7,0.1-34.1s24.7-9.3,34,0.1c9.4,9.4,9.3,24.7-0.1,34
	C1325.2,1189.4,1309.9,1189.3,1300.5,1179.9 M1112.9,991.2c-9.4-9.4-9.3-24.7,0.1-34.1c9.4-9.4,24.7-9.3,34,0.1
	c9.4,9.4,9.3,24.7-0.1,34S1122.2,1000.6,1112.9,991.2 M1409.5,1083.8l93-24.6c5.3-1.4,8.5-6.9,7.1-12.2c-1.4-5.3-6.9-8.5-12.2-7.1
	l-94.2,25c-14.2-38.4-37-74.8-68.5-106.4c-31.5-31.7-67.7-54.7-106-69.1l25.5-94.1c1.4-5.3-1.7-10.8-7-12.3
	c-5.3-1.4-10.8,1.7-12.3,7l-25.2,92.9c-90.1-26.9-189.3-8-265.2,55.8l407.7,410C1416.4,1273.1,1435.9,1174,1409.5,1083.8"/>
</svg>
